<svg xmlns="http://www.w3.org/2000/svg" viewBox="0 0 100 100">
  <!-- Background -->
  <rect width="100" height="100" fill="#000000"/>
  
  <!-- Brick platforms (blue) -->
  <rect x="0" y="85" width="20" height="15" fill="#1e40af"/>
  <rect x="20" y="85" width="20" height="15" fill="#1e4faf"/>
  <rect x="40" y="85" width="20" height="15" fill="#1e40af"/>
  <rect x="60" y="85" width="20" height="15" fill="#1e4faf"/>
  <rect x="80" y="85" width="20" height="15" fill="#1e40af"/>
  
  <!-- Ladder -->
  <rect x="60" y="15" width="5" height="70" fill="#ffb700"/>
  <rect x="75" y="15" width="5" height="70" fill="#ffb700"/>
  <!-- Ladder rungs -->
  <rect x="60" y="25" width="20" height="3" fill="#ffb700"/>
  <rect x="60" y="40" width="20" height="3" fill="#ffb700"/>
  <rect x="60" y="55" width="20" height="3" fill="#ffb700"/>
  <rect x="60" y="70" width="20" height="3" fill="#ffb700"/>
  
  <!-- Lode Runner character (white) running - 1.5x bigger -->
  <!-- Head -->
  <rect x="15" y="50" width="15" height="15" fill="#ffffff"/>
  
  <!-- Body -->
  <rect x="15" y="65" width="15" height="15" fill="#ffffff"/>
  
  <!-- Arms - in running position -->
  <rect x="7.5" y="65" width="7.5" height="7.5" fill="#ffffff"/>
  <rect x="30" y="65" width="7.5" height="7.5" fill="#ffffff"/>
  
  <!-- Legs - in running position -->
  <rect x="7.5" y="80" width="7.5" height="7.5" fill="#ffffff"/>
  <rect x="30" y="80" width="7.5" height="7.5" fill="#ffffff"/>
</svg>
